<svg width="20" height="20" viewBox="0 0 20 20" fill="none" xmlns="http://www.w3.org/2000/svg">
<path fill-rule="evenodd" clip-rule="evenodd" d="M20 10C20 15.5228 15.5228 20 10 20C4.47715 20 0 15.5228 0 10C0 4.47715 4.47715 0 10 0C15.5228 0 20 4.47715 20 10ZM5.4 11.2C5.84044 10.8697 6.46468 10.9576 6.79686 11.3958L6.8015 11.4018C6.80745 11.4093 6.81877 11.4234 6.83531 11.4431C6.86846 11.4826 6.92219 11.5442 6.99543 11.6206C7.14272 11.7743 7.36407 11.9828 7.65067 12.1913C8.22773 12.6109 9.02553 13 10 13C10.9745 13 11.7723 12.6109 12.3493 12.1913C12.6359 11.9828 12.8573 11.7743 13.0046 11.6206C13.0778 11.5442 13.1315 11.4826 13.1647 11.4431C13.1812 11.4234 13.1925 11.4093 13.1985 11.4018L13.2031 11.3958C13.5353 10.9576 14.1596 10.8697 14.6 11.2C15.0418 11.5314 15.1314 12.1582 14.8 12.6L14 12C14.8 12.6 14.7998 12.6003 14.7995 12.6006L14.799 12.6013L14.7978 12.6029L14.7951 12.6065L14.7879 12.6159L14.7666 12.6432C14.7493 12.6649 14.726 12.6938 14.6966 12.7288C14.638 12.7987 14.555 12.8933 14.4486 13.0044C14.2365 13.2257 13.9266 13.5172 13.5257 13.8087C12.7277 14.3891 11.5255 15 10 15C8.47447 15 7.27227 14.3891 6.47433 13.8087C6.07343 13.5172 5.76353 13.2257 5.55145 13.0044C5.445 12.8933 5.36201 12.7987 5.30336 12.7288C5.27401 12.6938 5.25065 12.6649 5.23341 12.6432L5.21211 12.6159L5.2049 12.6065L5.20216 12.6029L5.20101 12.6013L5.20049 12.6006C5.20024 12.6003 5.2 12.6 6 12L5.2 12.6C4.86863 12.1582 4.95817 11.5314 5.4 11.2ZM6 7C6 6.44772 6.44772 6 7 6H7.01C7.56228 6 8.01 6.44772 8.01 7C8.01 7.55228 7.56228 8 7.01 8H7C6.44772 8 6 7.55228 6 7ZM13 6C12.4477 6 12 6.44772 12 7C12 7.55228 12.4477 8 13 8H13.01C13.5623 8 14.01 7.55228 14.01 7C14.01 6.44772 13.5623 6 13.01 6H13Z" fill="#8E8E93"/>
</svg>
